# xmcd
#
# Track frame offsets:
#	150
#	13254
#	31477
#	49025
#	66900
#	89567
#	110156
#	128616
#	148884
#	177225
#	196099
#	220517
#	247095
#	267254
#
# Disc length: 3902 seconds
#
# Revision: 1
# Processed by: cddbd v1.5.1PL0 Copyright (c) Steve Scherf et al.
# Submitted via: EasyCDDAExtractor 5.0.6
#
DISCID=d20f3c0e
DTITLE=Marc Lavoine - Olympia DeuxMilleTrois
DYEAR=2003
DGENRE=
TTITLE0=Dis moi que l'amour...
TTITLE1=Le Pont Mirabeau
TTITLE2=Les Tournesols
TTITLE3=Les yeux revolver
TTITLE4=Je ne veux qu'elle
TTITLE5=C'est ça la France
TTITLE6=J'aurai voulu
TTITLE7=C'est la vie
TTITLE8=Paris
TTITLE9=Rue Fontaine
TTITLE10=J'ai tout oublié
TTITLE11=Qu'est-ce que t'es belle
TTITLE12=Chère Amie
TTITLE13=J'ecris des chansons
EXTD=
EXTT0=
EXTT1=
EXTT2=
EXTT3=
EXTT4=
EXTT5=
EXTT6=
EXTT7=
EXTT8=
EXTT9=
EXTT10=
EXTT11=
EXTT12=
EXTT13=
PLAYORDER=
